<svg xmlns="http://www.w3.org/2000/svg" style="display: none;"><symbol id="plus" viewBox="0 0 341.4 341.4"><title>plus</title><polygon points="192,149.4 192,0 149.4,0 149.4,149.4 0,149.4 0,192 149.4,192 149.4,341.4 192,341.4 192,192 341.4,192 341.4,149.4 "/></symbol><symbol id="login" viewBox="0 0 512 512"><title>login</title><g transform="translate(1 1)"> <g> <g> <path d="M489.667-1h-384C93.885-1,84.333,8.551,84.333,20.333v149.333c0,11.782,9.551,21.333,21.333,21.333 c11.782,0,21.333-9.551,21.333-21.333v-128h341.333v426.667H127v-128c0-11.782-9.551-21.333-21.333-21.333 c-11.782,0-21.333,9.551-21.333,21.333v149.333c0,11.782,9.551,21.333,21.333,21.333h384c11.782,0,21.333-9.551,21.333-21.333 V20.333C511,8.551,501.449-1,489.667-1z"/> <path d="M197.248,325.251c-8.331,8.331-8.331,21.839,0,30.17c8.331,8.331,21.839,8.331,30.17,0l85.333-85.333 c0.004-0.004,0.006-0.008,0.01-0.011c0.493-0.494,0.96-1.012,1.403-1.552c0.203-0.247,0.379-0.507,0.569-0.761 c0.227-0.303,0.462-0.6,0.673-0.916c0.203-0.304,0.379-0.619,0.565-0.931c0.171-0.286,0.35-0.565,0.508-0.859 c0.17-0.318,0.314-0.644,0.467-0.969c0.145-0.307,0.298-0.609,0.429-0.923c0.13-0.315,0.236-0.637,0.35-0.957 c0.121-0.337,0.25-0.669,0.354-1.013c0.097-0.32,0.168-0.646,0.249-0.969c0.089-0.351,0.187-0.698,0.258-1.055 c0.074-0.375,0.119-0.753,0.173-1.13c0.044-0.311,0.104-0.617,0.135-0.933c0.138-1.4,0.138-2.811,0-4.211 c-0.031-0.315-0.09-0.621-0.135-0.933c-0.054-0.377-0.098-0.756-0.173-1.13c-0.071-0.358-0.169-0.704-0.258-1.055 c-0.081-0.324-0.152-0.649-0.249-0.969c-0.104-0.344-0.233-0.677-0.354-1.013c-0.115-0.32-0.22-0.642-0.35-0.957 c-0.13-0.315-0.284-0.616-0.429-0.923c-0.153-0.324-0.297-0.651-0.467-0.969c-0.158-0.294-0.337-0.573-0.508-0.859 c-0.186-0.312-0.362-0.627-0.565-0.931c-0.211-0.316-0.446-0.612-0.673-0.916c-0.19-0.254-0.366-0.514-0.569-0.761 c-0.443-0.54-0.91-1.059-1.403-1.552c-0.004-0.004-0.006-0.008-0.01-0.011l-85.333-85.333c-8.331-8.331-21.839-8.331-30.17,0 s-8.331,21.839,0,30.17l48.915,48.915H20.333C8.551,233.669-1,243.22-1,255.002s9.551,21.333,21.333,21.333h225.83 L197.248,325.251z"/> </g> </g> </g></symbol><symbol id="magnifying-glass" viewBox="0 0 512 512"><title>magnifying-glass</title><path d="M302.058,0C186.296,0,92.116,94.18,92.116,209.942c0,50.697,18.064,97.253,48.092,133.574L0,483.724L28.276,512 l140.208-140.208c36.321,30.028,82.877,48.092,133.574,48.092C417.82,419.884,512,325.704,512,209.942S417.821,0,302.058,0z M302.058,379.895c-93.712,0-169.953-76.241-169.953-169.953S208.346,39.989,302.058,39.989s169.953,76.241,169.953,169.953 S395.77,379.895,302.058,379.895z"/></symbol><symbol id="star" viewBox="0 0 512.001 512.001"><title>star</title><path d="M511.266,197.482c-1.764-5.43-6.458-9.388-12.108-10.209l-158.032-22.964L270.452,21.108 c-2.514-5.094-7.69-8.331-13.372-8.361c-5.67-0.047-10.892,3.152-13.459,8.219l-72.645,143.329L12.843,187.274 c-5.65,0.821-10.344,4.779-12.108,10.209c-1.765,5.43-0.293,11.391,3.795,15.376l114.353,111.467L91.888,481.718 c-0.962,5.613,1.336,11.287,5.934,14.646c4.597,3.36,10.702,3.827,15.757,1.204l143.374-74.374l141.394,74.335 c5.058,2.658,11.179,2.214,15.797-1.142c4.619-3.356,6.933-9.043,5.968-14.671l-26.995-157.393L507.47,212.858 C511.559,208.873,513.031,202.912,511.266,197.482z M366.531,308.348c-3.536,3.446-5.149,8.411-4.314,13.277l23.19,135.21 L263.98,392.996c-4.344-2.285-9.531-2.298-13.887-0.038L126.559,457.04l23.226-135.416c0.834-4.866-0.779-9.831-4.314-13.277 l-98.236-95.756l135.758-19.727c4.83-0.702,9.017-3.709,11.223-8.063L256.822,61.28l60.892,123.38 c2.186,4.427,6.408,7.496,11.294,8.206l135.759,19.727L366.531,308.348z"/></symbol><symbol id="right" viewBox="0 0 512 512"><title>right</title><path d="M404.555,241.931L125.404,0l-24.379,28.138L363.948,256L101.025,483.862L125.404,512l279.151-241.931 c4.076-3.536,6.42-8.672,6.42-14.069S408.63,245.467,404.555,241.931z"/></symbol><symbol id="left" viewBox="0 0 512 512"><title>left</title><path d="M410.975,28.138L386.596,0L107.445,241.931c-4.076,3.536-6.42,8.672-6.42,14.069s2.345,10.515,6.42,14.069L386.596,512 l24.379-28.138L148.052,256L410.975,28.138z"/></symbol><symbol id="google-plus-social-logotype" viewBox="0 0 94 94"><title>google-plus-social-logotype</title><path d="M89,0H5C2.239,0,0,2.239,0,5v84c0,2.761,2.239,5,5,5h84c2.762,0,5-2.239,5-5V5C94,2.239,91.762,0,89,0z M31.088,85.553 c-14.553,0-21.571-6.935-21.571-14.381c0-3.617,1.803-8.742,7.724-12.264c6.219-3.822,14.652-4.322,19.17-4.633 C35,52.465,33.4,50.557,33.4,47.441c0-1.708,0.502-2.713,0.999-3.922c-1.105,0.103-2.204,0.202-3.208,0.202 c-10.634,0-16.654-7.95-16.654-15.792c0-4.62,2.104-9.752,6.418-13.473c5.724-4.726,13.541-6.008,18.966-6.008h19.771l-6.525,4.099 h-6.217c2.307,1.909,7.117,5.931,7.117,13.578c0,7.436-4.209,10.964-8.421,14.28c-1.306,1.304-2.813,2.712-2.813,4.929 c0,2.207,1.508,3.413,2.608,4.325l3.617,2.809c4.414,3.72,8.428,7.138,8.428,14.083C57.482,76.005,48.346,85.553,31.088,85.553z M84.482,45.77H74.395v10.117H69.43V45.77H59.391v-5.02H69.43V30.695h4.965V40.75h10.088V45.77z"/><path d="M45.24,30.749c0-7.243-4.317-18.503-12.64-18.503c-2.616,0-5.42,1.307-7.029,3.32c-1.707,2.114-2.204,4.821-2.204,7.443 c0,6.734,3.911,17.894,12.544,17.894c2.507,0,5.207-1.2,6.821-2.811C45.04,35.771,45.24,32.56,45.24,30.749z"/><path d="M39.82,57.195c-0.8-0.102-1.302-0.102-2.305-0.102c-0.904,0-6.324,0.197-10.537,1.615 c-2.208,0.799-8.627,3.214-8.627,10.354c0,7.141,6.922,12.276,17.658,12.276c9.635,0,14.755-4.637,14.755-10.862 C50.764,65.334,47.451,62.627,39.82,57.195z"/></symbol><symbol id="linkedin" viewBox="0 0 512 512"><title>linkedin</title><path d="m475.074219 0h-438.148438c-20.394531 0-36.925781 16.53125-36.925781 36.925781v438.148438c0 20.394531 16.53125 36.925781 36.925781 36.925781h438.148438c20.394531 0 36.925781-16.53125 36.925781-36.925781v-438.148438c0-20.394531-16.53125-36.925781-36.925781-36.925781zm-293.464844 387h-62.347656v-187.574219h62.347656zm-31.171875-213.1875h-.40625c-20.921875 0-34.453125-14.402344-34.453125-32.402344 0-18.40625 13.945313-32.410156 35.273437-32.410156 21.328126 0 34.453126 14.003906 34.859376 32.410156 0 18-13.53125 32.402344-35.273438 32.402344zm255.984375 213.1875h-62.339844v-100.347656c0-25.21875-9.027343-42.417969-31.585937-42.417969-17.222656 0-27.480469 11.601563-31.988282 22.800781-1.648437 4.007813-2.050781 9.609375-2.050781 15.214844v104.75h-62.34375s.816407-169.976562 0-187.574219h62.34375v26.558594c8.285157-12.78125 23.109375-30.960937 56.1875-30.960937 41.019531 0 71.777344 26.808593 71.777344 84.421874zm0 0"/></symbol><symbol id="twitter" viewBox="0 0 512 512"><title>twitter</title><path d="m475.074219 0h-438.148438c-20.394531 0-36.925781 16.53125-36.925781 36.925781v438.148438c0 20.394531 16.53125 36.925781 36.925781 36.925781h438.148438c20.394531 0 36.925781-16.53125 36.925781-36.925781v-438.148438c0-20.394531-16.53125-36.925781-36.925781-36.925781zm-102.1875 199.601562c.113281 2.519532.167969 5.050782.167969 7.59375 0 77.644532-59.101563 167.179688-167.183594 167.183594h.003906-.003906c-33.183594 0-64.0625-9.726562-90.066406-26.394531 4.597656.542969 9.277343.8125 14.015624.8125 27.53125 0 52.867188-9.390625 72.980469-25.152344-25.722656-.476562-47.410156-17.464843-54.894531-40.8125 3.582031.6875 7.265625 1.0625 11.042969 1.0625 5.363281 0 10.558593-.722656 15.496093-2.070312-26.886718-5.382813-47.140624-29.144531-47.140624-57.597657 0-.265624 0-.503906.007812-.75 7.917969 4.402344 16.972656 7.050782 26.613281 7.347657-15.777343-10.527344-26.148437-28.523438-26.148437-48.910157 0-10.765624 2.910156-20.851562 7.957031-29.535156 28.976563 35.554688 72.28125 58.9375 121.117187 61.394532-1.007812-4.304688-1.527343-8.789063-1.527343-13.398438 0-32.4375 26.316406-58.753906 58.765625-58.753906 16.902344 0 32.167968 7.144531 42.890625 18.566406 13.386719-2.640625 25.957031-7.53125 37.3125-14.261719-4.394531 13.714844-13.707031 25.222657-25.839844 32.5 11.886719-1.421875 23.214844-4.574219 33.742187-9.253906-7.863281 11.785156-17.835937 22.136719-29.308593 30.429687zm0 0"/></symbol><symbol id="facebook-logotype" viewBox="0 0 29.242 29.242"><title>facebook-logotype</title><path style="fill:#030104;" d="M26.918,0.668H2.326C1.039,0.668,0,1.707,0,2.992v23.259c0,1.282,1.039,2.323,2.326,2.323h24.592 c1.279,0,2.324-1.041,2.324-2.323V2.992C29.242,1.707,28.197,0.668,26.918,0.668z M19.656,8.953 C19.051,8.599,18.572,8.32,17.97,8.32c-0.59,0-1.096,0.147-1.354,0.396c-0.256,0.246-0.385,0.723-0.385,1.428v1.041h3.154 l-0.682,2.899H16.23v9.633h-3.961v-9.633h-1.85v-2.899h1.85v-1.107c0-1.164,0.139-1.861,0.414-2.438 c0.275-0.573,0.809-1.211,1.549-1.572c0.738-0.361,1.832-0.543,2.965-0.543c1.16,0,2.066,0.387,3.178,0.699L19.656,8.953z"/></symbol><symbol id="rss" viewBox="0 0 512 512"><title>rss</title><path d="m76 512c41.351562 0 75-34.648438 75-76s-33.648438-76-75-76-76 34.648438-76 76 34.648438 76 76 76zm0 0"/><path d="m242 497c0 5.0625-.429688 10.019531-.761719 15h90c.238281-5.007812.761719-9.9375.761719-15 0-173.6875-143.3125-317-317-317-5.0625 0-9.992188.523438-15 .761719v90c4.980469-.332031 9.9375-.761719 15-.761719 124.070312 0 227 102.929688 227 227zm0 0"/><path d="m15 0c-5.066406 0-9.972656.609375-15 .757812v90.003907c5.019531-.1875 9.9375-.761719 15-.761719 223.316406 0 407 183.683594 407 407 0 5.0625-.574219 9.980469-.761719 15h90.003907c.148437-5.027344.757812-9.933594.757812-15 0-273.382812-223.621094-497-497-497zm0 0"/></symbol><symbol id="rss-logo" viewBox="0 0 17.561 17.561"><title>rss-logo</title><path style="fill:#030104;" d="M16.486,0H1.076C0.481,0,0,0.481,0,1.075v15.412c0,0.593,0.481,1.074,1.076,1.074h15.41 c0.594,0,1.075-0.481,1.075-1.074V1.075C17.561,0.482,17.08,0,16.486,0z M5.158,14.488c-1,0-1.811-0.811-1.811-1.813 c0-1,0.811-1.811,1.811-1.811s1.813,0.811,1.813,1.811C6.971,13.678,6.158,14.488,5.158,14.488z M11.299,13.279 c0,0.3-0.118,0.581-0.331,0.794c-0.212,0.211-0.496,0.329-0.798,0.329c-0.622,0-1.126-0.505-1.126-1.123L9.033,12.65 c0-2.012-1.635-3.647-3.647-3.647H4.502c-0.625,0-1.134-0.509-1.134-1.137s0.509-1.138,1.134-1.138h0.512h0.372 c3.162,0,5.758,2.476,5.907,5.638c0.003,0.022,0.007,0.039,0.007,0.06l0.003,0.11c0.003,0.038,0.005,0.075,0.005,0.114 L11.299,13.279z M15.074,12.71c0,0.003,0,0.005,0,0.008v0.532c0,0.569-0.465,1.031-1.038,1.031s-1.038-0.462-1.038-1.031v-0.759 c-0.117-4.143-3.483-7.484-7.639-7.557c-0.006,0-0.013,0.002-0.02,0.002h-0.96c-0.57,0-1.031-0.464-1.031-1.037 c0-0.574,0.461-1.038,1.031-1.038H5.34c0.025,0,0.047,0.006,0.071,0.007c5.129,0.098,9.311,4.133,9.64,9.204 c0.016,0.071,0.023,0.141,0.023,0.217C15.074,12.289,15.074,12.71,15.074,12.71z"/></symbol><symbol id="waste-logo" viewBox="0 0 1204 277.5"><title>waste-logo</title><style type="text/css"> .st0{fill:#52AC62;} .st1{fill-rule:evenodd;clip-rule:evenodd;fill:#52AC62;} .st2{fill:#243924;} </style><switch> <g> <g> <polygon points="87.2,85.2 108.2,183.4 131.4,147.3 146.1,182.7 176.6,84.3 194.6,84.9 149.2,229.5 127.3,184.3 98.4,221.9 68.5,85.5 87.2,85.2 "/> <polygon points="165.6,230.6 215.8,84.3 261.8,200.9 247.8,208.5 217.1,130.7 184.7,227.7 165.6,230.6 "/> <polygon points="194.8,172.7 233.6,172.6 241.6,187.5 189.9,187.4 194.8,172.7 "/> <polygon points="362.7,81.9 362.7,205.4 346.3,188.7 346.3,81.9 362.7,81.9 "/> <path d="M301.7,111.8c7-37.7,66.6-44.4,95-43.7l0,15.6c-42.8-0.8-73.9,10.4-79.1,26.9L301.7,111.8L301.7,111.8z"/> <polygon points="420.6,123.6 476,135.9 473.5,150.5 419.9,139.5 420.6,123.6 "/> <path d="M480.4,103.1c-17.5-15.6-32.4-19-55.2-20.4v95.1l57,12.7l-3,14.5L410,189.5V68.1c31.5-1.7,59.3,4.4,80.7,24.6 L480.4,103.1L480.4,103.1z"/> <path class="st0" d="M512.6,141.5L512.6,141.5L512.6,141.5c1.4-1.5,2.5-2.7,3.4-3.8c0.8-1,1.7-2.3,2.7-3.8 c4-6.2,6.1-12.5,5.9-18.8l0-0.1l0,0c-0.1-4.1-1.1-8.1-2.8-11.9c-1.9-4.1-4.6-8.1-8.1-11.9c-20.1-21.6-63-36.1-112.8-35.5 c-0.5,0-1.1,0-1.8,0c-34.3,0.7-65,8.7-87,21c-20.1,11.3-32.3,25.9-32.2,41.2l0,0.3l0,0v0.1l0,0c0,1,0.1,2.1,0.3,3.2 c0.1,1,0.3,2,0.6,3.2c1.4,5.6,4.4,11,8.6,15.5l0.4,0.4l0,0c1.3,1.5,2.4,3,3.5,4.5c1.2,1.7,2.2,3.3,3,4.8c4.8,8.6,7.5,18.2,7.5,28 l0,0h0c0,24.9-16.8,46.9-43.9,62.4C234.2,255,199.3,264,160.9,264v0h0h0v0c-38.4,0-73.4-9-98.8-23.5 C35,225,18.2,202.9,18.2,178.1h0l0,0v0h0c0-7.6,1.6-15.2,4.8-22.4c0.4-1,1-2.2,1.7-3.5c3-5.8,6.9-11.4,11.8-16.7l14.8,13.8 c-3.7,3.9-6.5,8-8.6,12.1c-0.3,0.6-0.7,1.4-1.1,2.3c-2.1,4.7-3.1,9.5-3.1,14.3h0v0l0,0h0c0,17,12.9,32.9,33.8,44.8 c22.6,12.9,53.9,20.9,88.7,20.9v0h0h0v0c34.8,0,66.1-8,88.7-20.9c20.8-11.9,33.8-27.8,33.8-44.8h0l0,0c0-6.2-1.7-12.5-4.9-18.1 c-0.7-1.2-1.4-2.3-2-3.3c-0.7-1-1.3-1.9-2-2.7c-6.6-7-11.2-15.5-13.5-24.4c-0.4-1.7-0.8-3.5-1-5.4c-0.2-1.7-0.4-3.6-0.4-5.5v0 l0-0.1v0v-0.3v0c-0.3-23.4,15.9-44.3,42.5-59.2c24.7-13.8,58.8-22.8,96.6-23.6c0.5,0,1.2,0,2,0c55.5-0.8,104.2,16.4,127.9,41.9 c5,5.4,8.9,11.1,11.7,17.3c2.9,6.3,4.5,13,4.7,19.9v0l0,0.1c0.2,10.4-2.9,20.7-9.2,30.3c-1,1.6-2.3,3.3-3.9,5.3 c-1.5,1.9-3,3.6-4.4,5.1h0l-0.1,0.1L512.6,141.5L512.6,141.5z"/> <polygon class="st1" points="51.2,150.4 59.2,157.8 60.8,123.9 27.2,128.2 35.2,135.6 51.2,150.4 "/> <polygon class="st1" points="512.8,139.8 504.8,132.4 503.2,166.2 536.8,162 528.8,154.6 512.8,139.8 "/> <g> <path d="M580.4,40.7c0,7.2-2.6,13.4-7.8,18.6c-5.2,5.2-11.4,7.8-18.6,7.8c-7.2,0-13.4-2.6-18.5-7.8c-5.2-5.2-7.8-11.4-7.8-18.6 c0-7.3,2.6-13.5,7.7-18.6c5.1-5.1,11.3-7.7,18.6-7.7c7.3,0,13.6,2.6,18.7,7.7C577.9,27.1,580.4,33.3,580.4,40.7z M577.9,40.7 c0-6.6-2.3-12.2-6.9-16.8c-4.6-4.6-10.2-6.9-16.8-6.9c-6.5,0-12.1,2.3-16.8,7c-4.6,4.7-6.9,10.3-6.9,16.8c0,6.4,2.3,12,7,16.7 c4.7,4.7,10.2,7,16.7,7c6.5,0,12.1-2.3,16.8-6.9C575.5,52.8,577.9,47.2,577.9,40.7z M567.5,33.4c0,2.2-0.7,4-2,5.4 c-1.4,1.4-3.1,2.3-5.3,2.5l6.9,14.2h-4.7l-6.6-13.6H548v13.6h-4.1V25h11C563.3,25,567.5,27.8,567.5,33.4z M563.2,33.3 c0-3.6-3.1-5.5-9.2-5.5H548v11.3h6.1c2.9,0,5-0.3,6.2-0.8C562.3,37.5,563.2,35.8,563.2,33.3z"/> </g> <g> <path d="M1187,97.5c0,7.2-2.6,13.4-7.8,18.6c-5.2,5.2-11.4,7.8-18.6,7.8c-7.2,0-13.4-2.6-18.5-7.8c-5.2-5.2-7.8-11.4-7.8-18.6 c0-7.3,2.6-13.5,7.7-18.6c5.1-5.1,11.3-7.7,18.6-7.7c7.3,0,13.6,2.6,18.7,7.7C1184.4,84,1187,90.2,1187,97.5z M1184.4,97.5 c0-6.6-2.3-12.2-6.9-16.8c-4.6-4.6-10.2-6.9-16.8-6.9c-6.5,0-12.1,2.3-16.8,7c-4.6,4.7-6.9,10.3-6.9,16.8c0,6.4,2.3,12,7,16.7 c4.7,4.7,10.2,7,16.7,7c6.5,0,12.1-2.3,16.8-6.9C1182.1,109.7,1184.4,104.1,1184.4,97.5z M1174,90.3c0,2.2-0.7,4-2,5.4 c-1.4,1.4-3.1,2.3-5.3,2.5l6.9,14.2h-4.7l-6.6-13.6h-7.7v13.6h-4.1V81.9h11C1169.8,81.9,1174,84.7,1174,90.3z M1169.8,90.2 c0-3.6-3.1-5.5-9.2-5.5h-6.1V96h6.1c2.9,0,5-0.3,6.2-0.8C1168.8,94.3,1169.8,92.7,1169.8,90.2z"/> </g> </g> <g> <path class="st2" d="M642.2,152c-1.2,4.4-2.9,11-5.1,19.8c-0.5,3-1,6.1-1.5,9.1c-1.1,3.8-3.1,5.7-6.1,5.7c-1.9,0-3.3-0.6-4.4-1.9 c-0.9-1.1-1.4-2.4-1.4-3.8c0-4.4,0.9-9.7,2.8-16c2.8-9.4,4.3-14.6,4.5-15.6c0.8-4.1,1.6-8.3,2.4-12.5c1.2-5.7,2.5-9.5,3.9-11.4 s3.2-2.9,5.4-2.9c2.5,0,4.3,1.2,5.4,3.7c1.1,2.3,2.2,7.1,3.5,14.4c1.2,7,3,14.6,5.3,22.7c3.1-8,5.9-16.8,8.6-26.4l2.3-9.3 c1.5-3.9,3.7-5.8,6.8-5.8c2.9,0,5.1,2.2,6.5,6.7c0.6,1.8,1.2,5.2,1.9,10.1c1.6,11.5,3.5,21.3,5.9,29.5c2.4,8.3,3.6,12.9,3.6,13.6 c0,1.6-0.6,2.9-1.9,4c-1.2,1-2.5,1.5-4,1.5c-2.9,0-5.1-2.1-6.5-6.3l-2.3-9.8c-1.3-4.9-2.7-11.8-4.2-20.9c-1.2,3.6-3.2,9.3-6,17 l-2.4,7.4c-1,2.9-2,5.4-3.1,7.2c-1.4,2.5-3.4,3.8-6,3.8c-2.5,0-4.5-1.5-5.8-4.5l-2.3-7.5C645.8,166.8,643.9,159.6,642.2,152z"/> <path class="st2" d="M741.9,181c0,1.5-0.5,2.7-1.6,3.7c-1.1,1-2.4,1.5-4,1.5c-1.6,0-3-0.5-4-1.5c-1.1-1-1.6-2.3-1.6-3.7 c0-1.6,0.1-4,0.2-7.3c0.2-3.2,0.2-5.7,0.2-7.3c0-1.5-0.1-3-0.2-4.7c-5,6.8-9.5,11.7-13.5,14.9c-3.6,2.9-6.3,5.1-8,6.8 c-1.8,1.7-3.6,2.5-5.7,2.5c-1.5,0-2.9-0.4-4-1.1c-1.4-0.9-2.1-2.2-2.1-3.8c0-7.1-0.1-14.6-0.4-22.4c-0.3-8.1-0.4-12-0.4-11.8 c0-1.5,0.5-2.8,1.6-3.8s2.4-1.5,4.1-1.5c3,0,4.9,1.6,5.5,4.7c0.1,0.4,0.2,3,0.4,7.8l0.4,15.4c3.5-3.1,7.2-7,11.1-11.6 c0.9-1.1,4.3-5.2,10.1-12.4c1.9-2.4,4-3.6,6.4-3.6c1.6,0,2.9,0.5,4,1.5c1.1,1,1.6,2.3,1.6,3.7c0,2.8,0.1,7,0.2,12.6 c0.1,5.6,0.2,9.8,0.2,12.6c0,1-0.1,2.4-0.2,4.4C742,178.6,741.9,180,741.9,181z"/> <path class="st2" d="M769.4,186.3c-2.3,0-4.8-0.3-7.3-0.8l0,16.5c0,1.6-0.5,2.9-1.6,3.9s-2.4,1.5-4,1.5s-3-0.5-4-1.5 s-1.6-2.3-1.6-3.9c0-1.3,0-6.3,0.1-15.1c0.1-6.5,0.1-11.8,0-16c-0.1-5.8-0.3-10.8-0.6-15c-0.4-5.8-0.6-8.4-0.6-8 c0-2.2,0.5-4.1,1.5-5.7c1.2-1.8,2.7-2.7,4.7-2.7c1.5,0,2.8,0.5,3.8,1.5c1,1,1.5,2.3,1.5,3.7l0,0.4c1.8-1,3.6-1.8,5.4-2.3 c1.8-0.5,3.6-0.7,5.5-0.7c6.2,0,10.7,2.6,13.6,7.9c2.1,4,3.2,9.1,3.2,15.4c0,5.9-1.7,10.8-5.1,14.7 C780.3,184.2,775.5,186.3,769.4,186.3z M772.2,152.8c-1.7,0-3.4,0.4-5.2,1.2s-3.5,2-5.3,3.6c0.3,5.6,0.5,11.1,0.5,16.7 c2.4,0.8,4.8,1.2,7.2,1.2c2.8,0,4.9-1,6.4-3c1.3-1.8,2-4.2,2-7.2c0-3.6-0.2-6.2-0.5-7.6C776.6,154.5,774.9,152.8,772.2,152.8z"/> <path class="st2" d="M850.5,186.4c-6.1,0-11.3-1.7-15.6-5.1c-4.6-3.6-6.9-8.3-6.9-14.1c0-6.5,2.1-12.5,6.4-17.9 c4.9-6.2,11.1-9.3,18.6-9.3c14.4,0,21.7,6.4,21.7,19.2c0,6.5-2,12.5-5.9,17.8C864.2,183.2,858.1,186.4,850.5,186.4z M853,150.6 c-3.6,0-6.7,1.7-9.4,5.2c-2.7,3.4-4,7.3-4,11.5c0,2.5,1,4.6,3.1,6.2s4.6,2.4,7.8,2.4c3.5,0,6.5-1.7,8.9-5.2 c2.4-3.3,3.6-7.1,3.6-11.5c0-3.4-0.7-5.6-2.1-6.8C859.5,151.2,856.9,150.6,853,150.6z"/> <path class="st2" d="M908.4,151.9c-0.7,0-1.8,0-3.3-0.1c-1.4-0.1-2.5-0.1-3.3-0.1c-0.4,0-0.8,0-1.3,0.1 c0.6,12.1,0.8,20.6,0.8,25.6c0,6-2,9.1-5.9,9.1c-1.5,0-2.7-0.4-3.8-1.3c-1.2-0.9-1.8-2.1-1.8-3.6c0-0.9,0-2.4,0.1-4.3 c0.1-1.9,0.1-3.4,0.1-4.3c0-3.7-0.2-10.7-0.7-21c-0.5,0-1.7,0-3.6,0c-2.7,0-4.8-0.3-6-0.8c-2-0.8-3-2.4-3-4.6 c0-1.5,0.5-2.7,1.5-3.8c1-1.1,2.3-1.6,3.9-1.6h23.9c5.3,0,7.9,1.8,7.9,5.4c0,1.5-0.5,2.8-1.6,3.8 C911.4,151.4,910.1,151.9,908.4,151.9z"/> <path class="st2" d="M958.7,151.1c-1.5,1.3-3.5,3.1-5.9,5.2l-6.2,5.7l12.3,15.1c0.9,1.1,1.3,2.2,1.3,3.3c0,1.4-0.6,2.6-1.7,3.7 s-2.4,1.6-3.9,1.6c-1.5,0-2.9-0.6-4-1.9c-2.4-2.6-6.4-7.4-12-14.3c-2.2,2.2-5.6,5.4-10.1,9.5c-1.5,1.2-2.6,2.2-3.3,3 c-1.2,1.2-2.5,1.9-4,1.9c-1.5,0-2.7-0.5-3.9-1.6c-1.1-1.1-1.7-2.3-1.7-3.7c0-1.6,1.1-3.4,3.3-5.4c1.8-1.5,3.6-3.1,5.3-4.6 c1.6-1.6,4.2-4.2,7.7-7.6c-1.5-2.1-3-4.2-4.6-6.3c-1.9-2.5-3.6-4.4-5.3-5.8c-1.4-1.2-2.1-2.5-2.1-3.9c0-1.4,0.5-2.6,1.6-3.7 c1.1-1.1,2.3-1.6,3.8-1.6c1.9,0,4.6,1.9,7.9,5.8l6.5,8.3c2.3-1.9,4.6-3.9,6.9-5.8c2.9-2.5,4.9-4.6,6.1-6.3 c1.2-1.6,2.6-2.5,4.4-2.5c1.5,0,2.8,0.5,3.9,1.5c1.1,1,1.7,2.2,1.7,3.6C962.9,146.1,961.5,148.4,958.7,151.1z"/> <path class="st2" d="M987.3,186.4c-6.1,0-11.3-1.7-15.6-5.1c-4.6-3.6-6.9-8.3-6.9-14.1c0-6.5,2.1-12.5,6.4-17.9 c4.9-6.2,11.1-9.3,18.6-9.3c14.4,0,21.7,6.4,21.7,19.2c0,6.5-2,12.5-5.9,17.8C1001,183.2,994.9,186.4,987.3,186.4z M989.8,150.6 c-3.6,0-6.7,1.7-9.4,5.2c-2.7,3.4-4,7.3-4,11.5c0,2.5,1,4.6,3.1,6.2c2,1.6,4.6,2.4,7.8,2.4c3.5,0,6.5-1.7,8.9-5.2 c2.4-3.3,3.6-7.1,3.6-11.5c0-3.4-0.7-5.6-2.1-6.8C996.4,151.2,993.7,150.6,989.8,150.6z"/> <path class="st2" d="M1055.8,194.2c-2.6,0-4.3-1.1-5.1-3.3c-0.5-1.4-0.8-3.5-0.6-6.5h-20.8c-0.2,0-2.1,0.1-5.5,0.4 c0,0.4,0,1.1,0,2.1c0,1,0,1.7,0,2.2c0,1.5-0.5,2.8-1.6,3.8c-1.1,1-2.4,1.5-4,1.5c-3.9,0-5.8-2.4-5.8-7.2c0-1,0-2.3,0.1-3.9 c0.1-1.6,0.1-2.9,0.1-3.9c0-1.6,0.5-2.8,1.6-3.8c1-0.9,2.3-1.4,3.8-1.5c2.4-3.4,4-7.4,4.9-12.1c0.6-3.3,0.9-7.7,0.9-13.1 c0-5.3,2.9-8,8.7-8c0.7,0,1.9,0,3.8,0.1c1.8,0.1,3.3,0.1,4.4,0.1c1,0,2.5-0.1,4.6-0.2c2-0.2,3.5-0.2,4.4-0.2c2.7,0,4.5,1,5.4,3 c0.5,1.2,0.8,3.2,0.8,6.1c0,1.2-0.1,2.9-0.2,5.2c-0.1,2.3-0.2,4-0.2,5.2c0,1,0.1,5.9,0.2,14.8c3.8,0.4,5.7,2.1,5.7,5.3 c0,1.1,0,2.5,0.1,4.3c0.1,1.8,0.1,3.2,0.1,4.2c0,1.5-0.5,2.8-1.6,3.8C1058.7,193.7,1057.4,194.2,1055.8,194.2z M1029.5,174.7 h14.7c-0.1-8.9-0.2-13.6-0.2-14.3c0-1.1,0.1-2.7,0.2-4.8c0.2-2.6,0.2-4.3,0.2-4.9c-4.8,0.1-7.9,0.2-9.5,0.1 C1034.7,160.1,1032.9,168.1,1029.5,174.7z"/> <path class="st2" d="M1085.4,186.4c-6.1,0-11.3-1.7-15.6-5.1c-4.6-3.6-6.9-8.3-6.9-14.1c0-6.5,2.1-12.5,6.4-17.9 c4.9-6.2,11.1-9.3,18.6-9.3c14.4,0,21.7,6.4,21.7,19.2c0,6.5-2,12.5-5.9,17.8C1099,183.2,1092.9,186.4,1085.4,186.4z M1087.9,150.6c-3.6,0-6.7,1.7-9.4,5.2c-2.7,3.4-4,7.3-4,11.5c0,2.5,1,4.6,3.1,6.2c2,1.6,4.6,2.4,7.8,2.4c3.5,0,6.5-1.7,8.9-5.2 c2.4-3.3,3.6-7.1,3.6-11.5c0-3.4-0.7-5.6-2.1-6.8C1094.4,151.2,1091.8,150.6,1087.9,150.6z"/> <path class="st2" d="M1120.4,185.7c-1.5,0-2.8-0.5-4-1.5c-1.3-1.1-2-2.3-2-3.8v-7.1c0-3,0.1-7,0.2-11.8 c0.2-6.4,0.2-10.3,0.2-11.8c0-2,0.2-3.5,0.5-4.4c0.5-1.5,1.6-2.5,3.2-2.9c2.3-0.6,5.6-0.9,9.9-0.9c4.6,0,8.8,1.1,12.6,3.2 c4.7,2.5,7,6,7,10.4c0,3.3-1.5,5.8-4.4,7.8c4.9,3.1,7.4,6.4,7.4,9.9c0,4.9-4,8.5-12.1,10.8C1133.5,185,1127.3,185.7,1120.4,185.7 z M1132.6,166.4c-0.6-0.1-3.1-0.2-7.4-0.4c-0.1,1-0.1,2.5-0.1,4.4v5.7c9.8-0.4,14.6-1.7,14.6-3.8c0-1.2-0.9-2.4-2.7-3.8 C1135.4,167.4,1133.9,166.7,1132.6,166.4z M1129.7,151h-1.7c-1,0-1.9,0-2.6,0c0,0.5,0,1.4,0,2.7c0,0.5,0,1.5,0.1,2.7 c0.1,1.5,0.2,2.4,0.2,2.7c1.1,0.1,2,0.1,2.5,0.1c1.8,0,3.6-0.3,5.3-0.9c2.3-0.8,3.5-2,3.5-3.4c0-0.9-0.8-1.8-2.5-2.7 C1132.9,151.5,1131.3,151,1129.7,151z"/> </g> </g> </switch></symbol><symbol id="waste-logo-mobile" viewBox="0 0 595.3 440.9"><title>waste-logo-mobile</title><style type="text/css"> .st0{fill:#52AC62;} .st1{fill-rule:evenodd;clip-rule:evenodd;fill:#52AC62;} .st2{fill:#243924;} </style><switch> <g> <g> <polygon points="87.2,109.7 108.2,207.9 131.4,171.8 146.1,207.2 176.6,108.8 194.6,109.4 149.2,254 127.3,208.9 98.4,246.4 68.5,110 87.2,109.7 "/> <polygon points="165.6,255.1 215.8,108.8 261.8,225.4 247.8,233 217.1,155.2 184.7,252.2 165.6,255.1 "/> <polygon points="194.8,197.2 233.6,197.1 241.6,212 189.9,211.9 194.8,197.2 "/> <polygon points="362.7,106.4 362.7,229.9 346.3,213.2 346.3,106.4 362.7,106.4 "/> <path d="M301.7,136.3c7-37.7,66.6-44.4,95-43.7l0,15.6c-42.8-0.8-73.9,10.4-79.1,26.9L301.7,136.3L301.7,136.3z"/> <polygon points="420.6,148.1 476,160.4 473.5,175 419.9,164 420.6,148.1 "/> <path d="M480.4,127.6c-17.5-15.6-32.4-19-55.2-20.4v95.1l57,12.7l-3,14.5L410,214.1V92.6c31.5-1.7,59.3,4.4,80.7,24.6 L480.4,127.6L480.4,127.6z"/> <path class="st0" d="M512.6,166L512.6,166L512.6,166c1.4-1.5,2.5-2.7,3.4-3.8c0.8-1,1.7-2.3,2.7-3.8c4-6.2,6.1-12.5,5.9-18.8 l0-0.1l0,0c-0.1-4.1-1.1-8.1-2.8-11.9c-1.9-4.1-4.6-8.1-8.1-11.9c-20.1-21.6-63-36.1-112.8-35.5c-0.5,0-1.1,0-1.8,0 c-34.3,0.7-65,8.7-87,21c-20.1,11.3-32.3,25.9-32.2,41.2l0,0.3l0,0v0.1l0,0c0,1,0.1,2.1,0.3,3.2c0.1,1,0.3,2,0.6,3.2 c1.4,5.6,4.4,11,8.6,15.5l0.4,0.4l0,0c1.3,1.5,2.4,3,3.5,4.5c1.2,1.7,2.2,3.3,3,4.8c4.8,8.6,7.5,18.2,7.5,28l0,0h0 c0,24.9-16.8,46.9-43.9,62.4c-25.4,14.5-60.3,23.5-98.8,23.5v0h0h0v0c-38.4,0-73.4-9-98.8-23.5c-27.1-15.5-43.9-37.5-43.9-62.4h0 l0,0v0h0c0-7.6,1.6-15.2,4.8-22.4c0.4-1,1-2.2,1.7-3.5c3-5.8,6.9-11.4,11.8-16.7l14.8,13.8c-3.7,3.9-6.5,8-8.6,12.1 c-0.3,0.6-0.7,1.4-1.1,2.3c-2.1,4.7-3.1,9.5-3.1,14.3h0v0l0,0h0c0,17,12.9,32.9,33.8,44.8c22.6,12.9,53.9,20.9,88.7,20.9v0h0h0v0 c34.8,0,66.1-8,88.7-20.9c20.8-11.9,33.8-27.8,33.8-44.8h0l0,0c0-6.2-1.7-12.5-4.9-18.1c-0.7-1.2-1.4-2.3-2-3.3 c-0.7-1-1.3-1.9-2-2.7c-6.6-7-11.2-15.5-13.5-24.4c-0.4-1.7-0.8-3.5-1-5.4c-0.2-1.7-0.4-3.6-0.4-5.5v0l0-0.1v0v-0.3v0 c-0.3-23.4,15.9-44.3,42.5-59.2c24.7-13.8,58.8-22.8,96.6-23.6c0.5,0,1.2,0,2,0c55.5-0.8,104.2,16.4,127.9,41.9 c5,5.4,8.9,11.1,11.7,17.3c2.9,6.3,4.5,13,4.7,19.9v0l0,0.1c0.2,10.4-2.9,20.7-9.2,30.3c-1,1.6-2.3,3.3-3.9,5.3 c-1.5,1.9-3,3.6-4.4,5.1h0l-0.1,0.1L512.6,166L512.6,166z"/> <polygon class="st1" points="51.2,174.9 59.2,182.3 60.8,148.5 27.2,152.7 35.2,160.1 51.2,174.9 "/> <polygon class="st1" points="512.8,164.3 504.8,156.9 503.2,190.7 536.8,186.5 528.8,179.1 512.8,164.3 "/> <g> <path d="M580.4,65.2c0,7.2-2.6,13.4-7.8,18.6c-5.2,5.2-11.4,7.8-18.6,7.8c-7.2,0-13.4-2.6-18.5-7.8c-5.2-5.2-7.8-11.4-7.8-18.6 c0-7.3,2.6-13.5,7.7-18.6c5.1-5.1,11.3-7.7,18.6-7.7c7.3,0,13.6,2.6,18.7,7.7C577.9,51.6,580.4,57.8,580.4,65.2z M577.9,65.2 c0-6.6-2.3-12.2-6.9-16.8c-4.6-4.6-10.2-6.9-16.8-6.9c-6.5,0-12.1,2.3-16.8,7c-4.6,4.7-6.9,10.3-6.9,16.8c0,6.4,2.3,12,7,16.7 c4.7,4.7,10.2,7,16.7,7c6.5,0,12.1-2.3,16.8-6.9C575.5,77.3,577.9,71.7,577.9,65.2z M567.5,57.9c0,2.2-0.7,4-2,5.4 c-1.4,1.4-3.1,2.3-5.3,2.5L567,80h-4.7l-6.6-13.6H548V80h-4.1V49.5h11C563.3,49.5,567.5,52.3,567.5,57.9z M563.2,57.8 c0-3.6-3.1-5.5-9.2-5.5H548v11.3h6.1c2.9,0,5-0.3,6.2-0.8C562.3,62,563.2,60.3,563.2,57.8z"/> </g> <g> <path d="M581,295c0,7.2-2.6,13.4-7.8,18.6c-5.2,5.2-11.4,7.8-18.6,7.8c-7.2,0-13.4-2.6-18.5-7.8c-5.2-5.2-7.8-11.4-7.8-18.6 c0-7.3,2.6-13.5,7.7-18.6c5.1-5.1,11.3-7.7,18.6-7.7c7.3,0,13.6,2.6,18.7,7.7C578.4,281.5,581,287.7,581,295z M578.4,295 c0-6.6-2.3-12.2-6.9-16.8c-4.6-4.6-10.2-6.9-16.8-6.9c-6.5,0-12.1,2.3-16.8,7c-4.6,4.7-6.9,10.3-6.9,16.8c0,6.4,2.3,12,7,16.7 c4.7,4.7,10.2,7,16.7,7c6.5,0,12.1-2.3,16.8-6.9C576.1,307.2,578.4,301.6,578.4,295z M568,287.8c0,2.2-0.7,4-2,5.4 c-1.4,1.4-3.1,2.3-5.3,2.5l6.9,14.2h-4.7l-6.6-13.6h-7.7v13.6h-4.1v-30.5h11C563.8,279.4,568,282.2,568,287.8z M563.8,287.7 c0-3.6-3.1-5.5-9.2-5.5h-6.1v11.3h6.1c2.9,0,5-0.3,6.2-0.8C562.8,291.9,563.8,290.2,563.8,287.7z"/> </g> </g> <g> <path class="st2" d="M36.2,349.5c-1.2,4.4-2.9,11-5.1,19.8c-0.5,3-1,6.1-1.5,9.1c-1.1,3.8-3.1,5.7-6.1,5.7 c-1.9,0-3.3-0.6-4.4-1.9c-0.9-1.1-1.4-2.4-1.4-3.8c0-4.4,0.9-9.7,2.8-16c2.8-9.4,4.3-14.6,4.5-15.6c0.8-4.1,1.6-8.3,2.4-12.5 c1.2-5.7,2.5-9.5,3.9-11.4c1.4-1.9,3.2-2.9,5.4-2.9c2.5,0,4.3,1.2,5.4,3.7c1.1,2.3,2.2,7.1,3.5,14.4c1.2,7,3,14.6,5.3,22.7 c3.1-8,5.9-16.8,8.6-26.4l2.3-9.3c1.5-3.9,3.7-5.8,6.8-5.8c2.9,0,5.1,2.2,6.5,6.7c0.6,1.8,1.2,5.2,1.9,10.1 c1.6,11.5,3.5,21.3,5.9,29.5c2.4,8.3,3.6,12.9,3.6,13.6c0,1.6-0.6,2.9-1.9,4c-1.2,1-2.5,1.5-4,1.5c-2.9,0-5.1-2.1-6.5-6.3 l-2.3-9.8c-1.3-4.9-2.7-11.8-4.2-20.9c-1.2,3.6-3.2,9.3-6,17l-2.4,7.4c-1,2.9-2,5.4-3.1,7.2c-1.4,2.5-3.4,3.8-6,3.8 c-2.5,0-4.5-1.5-5.8-4.5l-2.3-7.5C39.8,364.3,37.9,357.1,36.2,349.5z"/> <path class="st2" d="M135.9,378.5c0,1.5-0.5,2.7-1.6,3.7c-1.1,1-2.4,1.5-4,1.5c-1.6,0-3-0.5-4-1.5c-1.1-1-1.6-2.3-1.6-3.7 c0-1.6,0.1-4,0.2-7.3c0.2-3.2,0.2-5.7,0.2-7.3c0-1.5-0.1-3-0.2-4.7c-5,6.8-9.5,11.7-13.5,14.9c-3.6,2.9-6.3,5.1-8,6.8 c-1.8,1.7-3.6,2.5-5.7,2.5c-1.5,0-2.9-0.4-4-1.1c-1.4-0.9-2.1-2.2-2.1-3.8c0-7.1-0.1-14.6-0.4-22.4c-0.3-8.1-0.4-12-0.4-11.8 c0-1.5,0.5-2.8,1.6-3.8c1.1-1,2.4-1.5,4.1-1.5c3,0,4.9,1.6,5.5,4.7c0.1,0.4,0.2,3,0.4,7.8l0.4,15.4c3.5-3.1,7.2-7,11.1-11.6 c0.9-1.1,4.3-5.2,10.1-12.4c1.9-2.4,4-3.6,6.4-3.6c1.6,0,2.9,0.5,4,1.5c1.1,1,1.6,2.3,1.6,3.7c0,2.8,0.1,7,0.2,12.6 c0.1,5.6,0.2,9.8,0.2,12.6c0,1-0.1,2.4-0.2,4.4C136,376.1,135.9,377.5,135.9,378.5z"/> <path class="st2" d="M163.4,383.8c-2.3,0-4.8-0.3-7.3-0.8l0,16.5c0,1.6-0.5,2.9-1.6,3.9c-1.1,1-2.4,1.5-4,1.5c-1.6,0-3-0.5-4-1.5 c-1.1-1-1.6-2.3-1.6-3.9c0-1.3,0-6.3,0.1-15.1c0.1-6.5,0.1-11.8,0-16c-0.1-5.8-0.3-10.8-0.6-15c-0.4-5.8-0.6-8.4-0.6-8 c0-2.2,0.5-4.1,1.5-5.7c1.2-1.8,2.7-2.7,4.7-2.7c1.5,0,2.8,0.5,3.8,1.5c1,1,1.5,2.3,1.5,3.7l0,0.4c1.8-1,3.6-1.8,5.4-2.3 c1.8-0.5,3.6-0.7,5.5-0.7c6.2,0,10.7,2.6,13.6,7.9c2.1,4,3.2,9.1,3.2,15.4c0,5.9-1.7,10.8-5.1,14.7 C174.3,381.7,169.5,383.8,163.4,383.8z M166.2,350.4c-1.7,0-3.4,0.4-5.2,1.2c-1.8,0.8-3.5,2-5.3,3.6c0.3,5.6,0.5,11.1,0.5,16.7 c2.4,0.8,4.8,1.2,7.2,1.2c2.8,0,4.9-1,6.4-3c1.3-1.8,2-4.2,2-7.2c0-3.6-0.2-6.2-0.5-7.6C170.6,352,168.9,350.4,166.2,350.4z"/> <path class="st2" d="M244.5,383.9c-6.1,0-11.3-1.7-15.6-5.1c-4.6-3.6-6.9-8.3-6.9-14.1c0-6.5,2.1-12.5,6.4-17.9 c4.9-6.2,11.1-9.3,18.6-9.3c14.4,0,21.7,6.4,21.7,19.2c0,6.5-2,12.5-5.9,17.8C258.2,380.8,252.1,383.9,244.5,383.9z M247,348.1 c-3.6,0-6.7,1.7-9.4,5.2c-2.7,3.4-4,7.3-4,11.5c0,2.5,1,4.6,3.1,6.2c2,1.6,4.6,2.4,7.8,2.4c3.5,0,6.5-1.7,8.9-5.2 c2.4-3.3,3.6-7.1,3.6-11.5c0-3.4-0.7-5.6-2.1-6.8C253.5,348.7,250.9,348.1,247,348.1z"/> <path class="st2" d="M302.4,349.4c-0.7,0-1.8,0-3.3-0.1c-1.4-0.1-2.5-0.1-3.3-0.1c-0.4,0-0.8,0-1.3,0.1 c0.6,12.1,0.8,20.6,0.8,25.6c0,6-2,9.1-5.9,9.1c-1.5,0-2.7-0.4-3.8-1.3c-1.2-0.9-1.8-2.1-1.8-3.6c0-0.9,0-2.4,0.1-4.3 c0.1-1.9,0.1-3.4,0.1-4.3c0-3.7-0.2-10.7-0.7-21c-0.5,0-1.7,0-3.6,0c-2.7,0-4.8-0.3-6-0.8c-2-0.8-3-2.4-3-4.6 c0-1.5,0.5-2.7,1.5-3.8c1-1.1,2.3-1.6,3.9-1.6h23.9c5.3,0,7.9,1.8,7.9,5.4c0,1.5-0.5,2.8-1.6,3.8 C305.4,348.9,304.1,349.4,302.4,349.4z"/> <path class="st2" d="M352.7,348.6c-1.5,1.3-3.5,3.1-5.9,5.2l-6.2,5.7l12.3,15.1c0.9,1.1,1.3,2.2,1.3,3.3c0,1.4-0.6,2.6-1.7,3.7 s-2.4,1.6-3.9,1.6c-1.5,0-2.9-0.6-4-1.9c-2.4-2.6-6.4-7.4-12-14.3c-2.2,2.2-5.6,5.4-10.1,9.5c-1.5,1.2-2.6,2.2-3.3,3 c-1.2,1.2-2.5,1.9-4,1.9c-1.5,0-2.7-0.5-3.9-1.6c-1.1-1.1-1.7-2.3-1.7-3.7c0-1.6,1.1-3.4,3.3-5.4c1.8-1.5,3.6-3.1,5.3-4.6 c1.6-1.6,4.2-4.2,7.7-7.6c-1.5-2.1-3-4.2-4.6-6.3c-1.9-2.5-3.6-4.4-5.3-5.8c-1.4-1.2-2.1-2.5-2.1-3.9c0-1.4,0.5-2.6,1.6-3.7 c1.1-1.1,2.3-1.6,3.8-1.6c1.9,0,4.6,1.9,7.9,5.8l6.5,8.3c2.3-1.9,4.6-3.9,6.9-5.8c2.9-2.5,4.9-4.6,6.1-6.3 c1.2-1.6,2.6-2.5,4.4-2.5c1.5,0,2.8,0.5,3.9,1.5c1.1,1,1.7,2.2,1.7,3.6C356.9,343.7,355.5,345.9,352.7,348.6z"/> <path class="st2" d="M381.3,383.9c-6.1,0-11.3-1.7-15.6-5.1c-4.6-3.6-6.9-8.3-6.9-14.1c0-6.5,2.1-12.5,6.4-17.9 c4.9-6.2,11.1-9.3,18.6-9.3c14.4,0,21.7,6.4,21.7,19.2c0,6.5-2,12.5-5.9,17.8C395,380.8,388.9,383.9,381.3,383.9z M383.8,348.1 c-3.6,0-6.7,1.7-9.4,5.2c-2.7,3.4-4,7.3-4,11.5c0,2.5,1,4.6,3.1,6.2c2,1.6,4.6,2.4,7.8,2.4c3.5,0,6.5-1.7,8.9-5.2 c2.4-3.3,3.6-7.1,3.6-11.5c0-3.4-0.7-5.6-2.1-6.8C390.4,348.7,387.7,348.1,383.8,348.1z"/> <path class="st2" d="M449.8,391.7c-2.6,0-4.3-1.1-5.1-3.3c-0.5-1.4-0.8-3.5-0.6-6.5h-20.8c-0.2,0-2.1,0.1-5.5,0.4 c0,0.4,0,1.1,0,2.1c0,1,0,1.7,0,2.2c0,1.5-0.5,2.8-1.6,3.8c-1.1,1-2.4,1.5-4,1.5c-3.9,0-5.8-2.4-5.8-7.2c0-1,0-2.3,0.1-3.9 c0.1-1.6,0.1-2.9,0.1-3.9c0-1.6,0.5-2.8,1.6-3.8c1-0.9,2.3-1.4,3.8-1.5c2.4-3.4,4-7.4,4.9-12.1c0.6-3.3,0.9-7.7,0.9-13.1 c0-5.3,2.9-8,8.7-8c0.7,0,1.9,0,3.8,0.1c1.8,0.1,3.3,0.1,4.4,0.1c1,0,2.5-0.1,4.6-0.2c2-0.2,3.5-0.2,4.4-0.2c2.7,0,4.5,1,5.4,3 c0.5,1.2,0.8,3.2,0.8,6.1c0,1.2-0.1,2.9-0.2,5.2c-0.1,2.3-0.2,4-0.2,5.2c0,1,0.1,5.9,0.2,14.8c3.8,0.4,5.7,2.1,5.7,5.3 c0,1.1,0,2.5,0.1,4.3c0.1,1.8,0.1,3.2,0.1,4.2c0,1.5-0.5,2.8-1.6,3.8C452.7,391.2,451.4,391.7,449.8,391.7z M423.5,372.2h14.7 c-0.1-8.9-0.2-13.6-0.2-14.3c0-1.1,0.1-2.7,0.2-4.8c0.2-2.6,0.2-4.3,0.2-4.9c-4.8,0.1-7.9,0.2-9.5,0.1 C428.7,357.6,426.9,365.6,423.5,372.2z"/> <path class="st2" d="M479.4,383.9c-6.1,0-11.3-1.7-15.6-5.1c-4.6-3.6-6.9-8.3-6.9-14.1c0-6.5,2.1-12.5,6.4-17.9 c4.9-6.2,11.1-9.3,18.6-9.3c14.4,0,21.7,6.4,21.7,19.2c0,6.5-2,12.5-5.9,17.8C493,380.8,486.9,383.9,479.4,383.9z M481.9,348.1 c-3.6,0-6.7,1.7-9.4,5.2c-2.7,3.4-4,7.3-4,11.5c0,2.5,1,4.6,3.1,6.2c2,1.6,4.6,2.4,7.8,2.4c3.5,0,6.5-1.7,8.9-5.2 c2.4-3.3,3.6-7.1,3.6-11.5c0-3.4-0.7-5.6-2.1-6.8C488.4,348.7,485.8,348.1,481.9,348.1z"/> <path class="st2" d="M514.4,383.3c-1.5,0-2.8-0.5-4-1.5c-1.3-1.1-2-2.3-2-3.8v-7.1c0-3,0.1-7,0.2-11.8c0.2-6.4,0.2-10.3,0.2-11.8 c0-2,0.2-3.5,0.5-4.4c0.5-1.5,1.6-2.5,3.2-2.9c2.3-0.6,5.6-0.9,9.9-0.9c4.6,0,8.8,1.1,12.6,3.2c4.7,2.5,7,6,7,10.4 c0,3.3-1.5,5.8-4.4,7.8c4.9,3.1,7.4,6.4,7.4,9.9c0,4.9-4,8.5-12.1,10.8C527.5,382.5,521.3,383.3,514.4,383.3z M526.6,363.9 c-0.6-0.1-3.1-0.2-7.4-0.4c-0.1,1-0.1,2.5-0.1,4.4v5.7c9.8-0.4,14.6-1.7,14.6-3.8c0-1.2-0.9-2.4-2.7-3.8 C529.4,364.9,527.9,364.2,526.6,363.9z M523.7,348.5h-1.7c-1,0-1.9,0-2.6,0c0,0.5,0,1.4,0,2.7c0,0.5,0,1.5,0.1,2.7 c0.1,1.5,0.2,2.4,0.2,2.7c1.1,0.1,2,0.1,2.5,0.1c1.8,0,3.6-0.3,5.3-0.9c2.3-0.8,3.5-2,3.5-3.4c0-0.9-0.8-1.8-2.5-2.7 C526.9,349,525.3,348.5,523.7,348.5z"/> </g> </g> </switch></symbol> <symbol id="cancel" viewBox="0 0 512.001 512.001"><title>cancel</title><path d="M284.286,256.002L506.143,34.144c7.811-7.811,7.811-20.475,0-28.285c-7.811-7.81-20.475-7.811-28.285,0L256,227.717 L34.143,5.859c-7.811-7.811-20.475-7.811-28.285,0c-7.81,7.811-7.811,20.475,0,28.285l221.857,221.857L5.858,477.859 c-7.811,7.811-7.811,20.475,0,28.285c3.905,3.905,9.024,5.857,14.143,5.857c5.119,0,10.237-1.952,14.143-5.857L256,284.287 l221.857,221.857c3.905,3.905,9.024,5.857,14.143,5.857s10.237-1.952,14.143-5.857c7.811-7.811,7.811-20.475,0-28.285 L284.286,256.002z"/></symbol></svg>